<?xml version="1.0" encoding="utf-8"?>
<!-- Generator: Adobe Illustrator 18.1.1, SVG Export Plug-In . SVG Version: 6.00 Build 0)  -->
<svg version="1.1" xmlns="http://www.w3.org/2000/svg" xmlns:xlink="http://www.w3.org/1999/xlink" x="0px" y="0px"
	 viewBox="0 0 280 140" enable-background="new 0 0 280 140" xml:space="preserve">
<g id="Layer_1">
	<g>
		<defs>
			<rect id="SVGID_1_" x="-1272.82" y="-344.639" width="1140" height="361.482"/>
		</defs>
		<clipPath id="SVGID_3_">
			<use xlink:href="#SVGID_1_"  overflow="visible"/>
		</clipPath>
		<g clip-path="url(#SVGID_3_)">
			<g>
				<path fill="#F1F2F2" d="M1.842,1.313h-440.558c-1.105,0-2-0.895-2-2v-310.522c0-1.105,0.895-2,2-2H1.842c1.105,0,2,0.895,2,2
					V-0.687C3.842,0.417,2.947,1.313,1.842,1.313z"/>
			</g>
		</g>
	</g>
	<g>
		<rect x="18.026" y="110.908" fill="#E6E7E8" width="12.313" height="19.084"/>
		<rect x="37.329" y="120.45" fill="#E6E7E8" width="12.313" height="9.542"/>
		<rect x="56.632" y="88.701" fill="#E6E7E8" width="12.313" height="41.291"/>
		<rect x="75.935" y="93.52" fill="#E6E7E8" width="12.313" height="36.472"/>
		<rect x="95.238" y="83.309" fill="#E6E7E8" width="12.313" height="46.683"/>
		<rect x="114.54" y="75.929" fill="#66A1D2" width="12.313" height="54.063"/>
		<rect x="133.843" y="61.924" fill="#E6E7E8" width="12.313" height="68.068"/>
		<rect x="153.146" y="44.799" fill="#E6E7E8" width="12.313" height="85.193"/>
		<rect x="172.449" y="53.355" fill="#E6E7E8" width="12.313" height="76.637"/>
		<rect x="191.752" y="68.35" fill="#E6E7E8" width="12.313" height="61.642"/>
		<rect x="211.055" y="75.929" fill="#E6E7E8" width="12.313" height="54.063"/>
		<rect x="230.358" y="109.321" fill="#E6E7E8" width="12.313" height="20.671"/>
		<rect x="249.661" y="83.309" fill="#E6E7E8" width="12.313" height="46.683"/>
	</g>
</g>
<g id="Layer_2">
</g>
</svg>
