<?xml version="1.0" encoding="utf-8"?>
<!-- Generator: Adobe Illustrator 18.1.1, SVG Export Plug-In . SVG Version: 6.00 Build 0)  -->
<svg version="1.1" xmlns="http://www.w3.org/2000/svg" xmlns:xlink="http://www.w3.org/1999/xlink" x="0px" y="0px"
	 viewBox="0 0 280 140" enable-background="new 0 0 280 140" xml:space="preserve">
<g id="Layer_1">
	<g>
		<defs>
			<rect id="SVGID_1_" x="-1272.82" y="-185.647" width="1140" height="361.482"/>
		</defs>
		<clipPath id="SVGID_3_">
			<use xlink:href="#SVGID_1_"  overflow="visible"/>
		</clipPath>
		<g clip-path="url(#SVGID_3_)">
			<g>
				<path fill="#F1F2F2" d="M1.842,160.305h-440.558c-1.105,0-2-0.895-2-2v-310.522c0-1.105,0.895-2,2-2H1.842c1.105,0,2,0.895,2,2
					v310.522C3.842,159.409,2.947,160.305,1.842,160.305z"/>
			</g>
		</g>
	</g>
	<g>
		<rect x="18.026" y="113.514" fill="#E6E7E8" width="12.313" height="16.478"/>
		<rect x="37.329" y="121.753" fill="#E6E7E8" width="12.313" height="8.239"/>
		<rect x="56.632" y="113.514" fill="#E6E7E8" width="12.313" height="16.478"/>
		<rect x="75.935" y="110.409" fill="#E6E7E8" width="12.313" height="19.583"/>
		<rect x="95.238" y="94.294" fill="#E6E7E8" width="12.313" height="35.698"/>
		<rect x="114.54" y="96.189" fill="#E6E7E8" width="12.313" height="33.803"/>
		<rect x="133.843" y="98.993" fill="#E6E7E8" width="12.313" height="30.998"/>
		<rect x="153.146" y="94.294" fill="#E6E7E8" width="12.313" height="35.698"/>
		<rect x="172.449" y="92.654" fill="#E6E7E8" width="12.313" height="37.338"/>
		<rect x="191.752" y="84.536" fill="#E6E7E8" width="12.313" height="45.456"/>
		<rect x="211.055" y="48.997" fill="#66A1D2" width="12.313" height="80.995"/>
		<rect x="230.358" y="112.143" fill="#E6E7E8" width="12.313" height="17.849"/>
		<rect x="249.661" y="36.626" fill="#E6E7E8" width="12.313" height="93.366"/>
	</g>
</g>
<g id="Layer_2">
</g>
</svg>
