<?xml version="1.0" encoding="utf-8"?>
<!-- Generator: Adobe Illustrator 18.1.1, SVG Export Plug-In . SVG Version: 6.00 Build 0)  -->
<svg version="1.1" xmlns="http://www.w3.org/2000/svg" xmlns:xlink="http://www.w3.org/1999/xlink" x="0px" y="0px"
	 viewBox="0 0 280 140" enable-background="new 0 0 280 140" xml:space="preserve">
<g id="Layer_1">
	<g>
		<defs>
			<rect id="SVGID_1_" x="-1272.82" y="-34.95" width="1140" height="361.482"/>
		</defs>
		<clipPath id="SVGID_3_">
			<use xlink:href="#SVGID_1_"  overflow="visible"/>
		</clipPath>
		<g clip-path="url(#SVGID_3_)">
			<g>
				<path fill="#F1F2F2" d="M1.842,311.002h-440.558c-1.105,0-2-0.895-2-2V-1.52c0-1.105,0.895-2,2-2H1.842c1.105,0,2,0.895,2,2
					v310.522C3.842,310.107,2.947,311.002,1.842,311.002z"/>
			</g>
		</g>
	</g>
	<g>
		<rect x="18.026" y="113.513" fill="#E6E7E8" width="12.313" height="16.478"/>
		<rect x="37.329" y="85.896" fill="#E6E7E8" width="12.313" height="44.096"/>
		<rect x="56.632" y="41.799" fill="#E6E7E8" width="12.313" height="88.193"/>
		<rect x="75.935" y="55.799" fill="#E6E7E8" width="12.313" height="74.193"/>
		<rect x="95.238" y="69.799" fill="#E6E7E8" width="12.313" height="60.193"/>
		<rect x="114.54" y="92.654" fill="#E6E7E8" width="12.313" height="37.338"/>
		<rect x="133.843" y="110.409" fill="#E6E7E8" width="12.313" height="19.583"/>
		<rect x="153.146" y="94.294" fill="#66A1D2" width="12.313" height="35.698"/>
		<rect x="172.449" y="84.536" fill="#E6E7E8" width="12.313" height="45.456"/>
		<rect x="191.752" y="110.409" fill="#E6E7E8" width="12.313" height="19.583"/>
		<rect x="211.055" y="113.09" fill="#E6E7E8" width="12.313" height="16.902"/>
		<rect x="230.358" y="121.067" fill="#E6E7E8" width="12.313" height="8.925"/>
		<rect x="249.661" y="120.2" fill="#E6E7E8" width="12.313" height="9.792"/>
	</g>
</g>
<g id="Layer_2">
</g>
</svg>
