<?xml version="1.0" encoding="utf-8"?>
<!-- Generator: Adobe Illustrator 18.1.1, SVG Export Plug-In . SVG Version: 6.00 Build 0)  -->
<svg version="1.1" xmlns="http://www.w3.org/2000/svg" xmlns:xlink="http://www.w3.org/1999/xlink" x="0px" y="0px"
	 viewBox="0 0 140 140" enable-background="new 0 0 140 140" xml:space="preserve">
<g id="Layer_1">
	<g>
		
			<circle fill="none" stroke="#66A1D2" stroke-linecap="round" stroke-linejoin="round" stroke-miterlimit="10" cx="68.037" cy="45.073" r="5.779"/>
		
			<line fill="none" stroke="#66A1D2" stroke-linecap="round" stroke-linejoin="round" stroke-miterlimit="10" x1="68.038" y1="50.853" x2="68.038" y2="71.08"/>
		<polyline fill="none" stroke="#535C66" stroke-linecap="round" stroke-linejoin="round" stroke-miterlimit="10" points="
			56.263,56.661 52.338,57.532 24.863,49.682 24.863,92.856 52.338,100.706 87.662,92.856 115.137,100.706 115.137,57.532 
			87.662,49.682 79.812,51.427 		"/>
		<polygon fill="none" stroke="#535C66" stroke-linecap="round" stroke-linejoin="round" stroke-miterlimit="10" points="
			43.928,70.843 33.273,67.799 33.273,67.714 33.273,61.074 43.928,64.118 		"/>
		
			<line fill="none" stroke="#535C66" stroke-linejoin="round" stroke-miterlimit="10" x1="52.338" y1="57.532" x2="52.338" y2="100.706"/>
		
			<line fill="none" stroke="#535C66" stroke-linejoin="round" stroke-miterlimit="10" x1="87.662" y1="49.682" x2="87.662" y2="92.856"/>
		<path fill="none" stroke="#66A1D2" stroke-linecap="round" stroke-linejoin="round" stroke-miterlimit="10" d="M68.038,43.147
			c1.064,0,1.926,0.863,1.926,1.926"/>
		
			<line fill="none" stroke="#535C66" stroke-linecap="round" stroke-linejoin="round" stroke-miterlimit="10" x1="109.967" y1="63.414" x2="92.832" y2="58.519"/>
		
			<line fill="none" stroke="#535C66" stroke-linecap="round" stroke-linejoin="round" stroke-miterlimit="10" x1="109.967" y1="71.08" x2="92.832" y2="66.185"/>
		
			<line fill="none" stroke="#535C66" stroke-linecap="round" stroke-linejoin="round" stroke-miterlimit="10" x1="109.967" y1="78.746" x2="92.832" y2="73.851"/>
	</g>
</g>
<g id="Layer_2">
</g>
</svg>
