<?xml version="1.0" encoding="utf-8"?>
<!-- Generator: Adobe Illustrator 18.1.1, SVG Export Plug-In . SVG Version: 6.00 Build 0)  -->
<svg version="1.1" xmlns="http://www.w3.org/2000/svg" xmlns:xlink="http://www.w3.org/1999/xlink" x="0px" y="0px"
	 viewBox="0 0 140 140" enable-background="new 0 0 140 140" xml:space="preserve">
<g id="Layer_1">
	<g>
		<path fill="none" stroke="#535C66" stroke-linecap="round" stroke-miterlimit="10" d="M68.766,93.633H34.658
			c-4.105,0-7.44-3.331-7.44-7.44V37.83c0-4.109,3.335-7.44,7.44-7.44h70.684c4.113,0,7.44,3.331,7.44,7.44v43.529"/>
		<polyline fill="none" stroke="#535C66" stroke-linecap="round" stroke-linejoin="round" stroke-miterlimit="10" points="
			68.766,86.193 42.098,86.193 42.098,37.83 101.622,37.83 101.622,78.936 		"/>
		<g>
			<g>
				<path fill="#535C66" d="M107.202,61.151c0.474,0,0.86,0.386,0.86,0.86s-0.386,0.86-0.86,0.86s-0.86-0.386-0.86-0.86
					S106.728,61.151,107.202,61.151 M107.202,60.151c-1.025,0-1.86,0.832-1.86,1.86c0,1.028,0.836,1.86,1.86,1.86
					c1.028,0,1.86-0.832,1.86-1.86C109.062,60.983,108.231,60.151,107.202,60.151L107.202,60.151z"/>
			</g>
		</g>
		<path fill="none" stroke="#535C66" stroke-linejoin="round" stroke-miterlimit="10" d="M94.28,84.502V71.349
			c0-1.318-0.537-2.389-1.848-2.389h-3.568c-1.311,0-1.975,1.071-1.975,2.389v22.717l-4.237-5.069
			c-0.45-0.575-1.234-0.907-1.963-0.907l-2.461,0.046c-0.84,0-1.641,0.445-2.069,1.172c-0.428,0.729-0.455,1.629-0.053,2.367
			l9.205,16.692c0.419,0.767,1.208,1.244,2.079,1.244h15.733c0.962,0,1.829-0.585,2.197-1.477l3.744-16.459
			c0-1.049-0.455-2.081-1.453-2.389L94.28,84.502z"/>
		<path fill="none" stroke="#535C66" stroke-miterlimit="10" d="M36.518,62.011c0,1.028-0.832,1.86-1.86,1.86l0,0
			c-1.028,0-1.86-0.832-1.86-1.86l0,0c0-1.028,0.832-1.86,1.86-1.86l0,0C35.686,60.151,36.518,60.983,36.518,62.011L36.518,62.011z"
			/>
		<g>
			
				<rect x="54.027" y="67.677" fill="none" stroke="#535C66" stroke-linecap="round" stroke-linejoin="round" stroke-miterlimit="10" width="6.311" height="6.311"/>
		</g>
		
			<line fill="none" stroke="#535C66" stroke-linecap="round" stroke-linejoin="round" stroke-miterlimit="10" x1="63.976" y1="70.832" x2="79.59" y2="70.832"/>
		<g>
			<polyline fill="none" stroke="#66A1D2" stroke-linecap="round" stroke-linejoin="round" stroke-miterlimit="10" points="
				60.721,59.773 57.118,63.136 55.917,61.935 			"/>
			<polyline fill="none" stroke="#66A1D2" stroke-linecap="round" stroke-linejoin="round" stroke-miterlimit="10" points="
				60.338,63.684 60.338,65.094 54.027,65.094 54.027,58.783 57.182,58.783 			"/>
		</g>
		
			<line fill="none" stroke="#66A1D2" stroke-linecap="round" stroke-linejoin="round" stroke-miterlimit="10" x1="63.976" y1="61.938" x2="85.805" y2="61.938"/>
		<g>
			
				<rect x="54.027" y="49.889" fill="none" stroke="#535C66" stroke-linecap="round" stroke-linejoin="round" stroke-miterlimit="10" width="6.311" height="6.311"/>
		</g>
		
			<line fill="none" stroke="#535C66" stroke-linecap="round" stroke-linejoin="round" stroke-miterlimit="10" x1="63.976" y1="53.044" x2="82.925" y2="53.044"/>
	</g>
</g>
<g id="Layer_2">
</g>
</svg>
