<?xml version="1.0" encoding="utf-8"?>
<!-- Generator: Adobe Illustrator 18.1.1, SVG Export Plug-In . SVG Version: 6.00 Build 0)  -->
<svg version="1.1" xmlns="http://www.w3.org/2000/svg" xmlns:xlink="http://www.w3.org/1999/xlink" x="0px" y="0px"
	 viewBox="0 0 140 140" enable-background="new 0 0 140 140" xml:space="preserve">
<g id="Layer_1">
	<g>
		<polyline fill="none" stroke="#66A1D2" stroke-linecap="round" stroke-linejoin="round" stroke-miterlimit="10" points="
			44.079,61.892 60.645,61.892 63.452,58.15 67.194,63.763 71.871,54.408 75.613,67.504 78.419,61.892 95.921,61.892 		"/>
		<polyline fill="none" stroke="#535C66" stroke-linecap="round" stroke-linejoin="round" stroke-miterlimit="10" points="
			83.096,31.776 99.467,31.776 99.467,118.047 40.533,118.047 40.533,31.776 56.904,31.776 		"/>
		<path fill="none" stroke="#535C66" stroke-linecap="round" stroke-linejoin="round" stroke-miterlimit="10" d="M76.548,28.502
			c0-3.616-2.932-6.548-6.548-6.548c-3.613,0-6.548,2.932-6.548,6.548h-6.548v13.096h26.193V28.502H76.548z"/>
		<polyline fill="none" stroke="#535C66" stroke-linecap="round" stroke-linejoin="round" stroke-miterlimit="10" points="
			56.904,38.324 44.079,38.324 44.079,105.215 95.921,105.215 95.921,38.324 83.096,38.324 		"/>
		
			<line fill="none" stroke="#535C66" stroke-linecap="round" stroke-linejoin="round" stroke-miterlimit="10" x1="55.719" y1="80.887" x2="81.912" y2="80.887"/>
		
			<line fill="none" stroke="#535C66" stroke-linecap="round" stroke-linejoin="round" stroke-miterlimit="10" x1="55.719" y1="87.436" x2="81.912" y2="87.436"/>
	</g>
</g>
<g id="Layer_2">
</g>
</svg>
