<?xml version="1.0" encoding="utf-8"?>
<!-- Generator: Adobe Illustrator 18.1.1, SVG Export Plug-In . SVG Version: 6.00 Build 0)  -->
<svg version="1.1" xmlns="http://www.w3.org/2000/svg" xmlns:xlink="http://www.w3.org/1999/xlink" x="0px" y="0px"
	 viewBox="0 0 140 140" enable-background="new 0 0 140 140" xml:space="preserve">
<g id="Layer_1">
	<g>
		<path fill="none" stroke="#535C66" stroke-linecap="round" stroke-linejoin="round" stroke-miterlimit="10" d="M75.877,40.647
			c0,3.307-5.99,10.482-5.99,10.482s-5.989-7.176-5.989-10.482c0-3.308,2.68-5.99,5.989-5.99
			C73.195,34.657,75.877,37.339,75.877,40.647z"/>
		
			<circle fill="none" stroke="#66A1D2" stroke-linecap="round" stroke-linejoin="round" stroke-miterlimit="10" cx="69.887" cy="40.647" r="2.246"/>
		<path fill="none" stroke="#535C66" stroke-linecap="round" stroke-linejoin="round" stroke-miterlimit="10" d="M63.707,78.096
			c0,8.595-15.571,27.247-15.571,27.247S32.57,86.691,32.57,78.096c0-8.599,6.966-15.568,15.567-15.568S63.707,69.498,63.707,78.096
			z"/>
		
			<circle fill="none" stroke="#66A1D2" stroke-linecap="round" stroke-linejoin="round" stroke-miterlimit="10" cx="48.139" cy="78.096" r="5.839"/>
		<path fill="none" stroke="#535C66" stroke-linecap="round" stroke-linejoin="round" stroke-miterlimit="10" d="M107.43,53.588
			c0,5.386-9.746,17.053-9.746,17.053S87.94,58.974,87.94,53.588c0-5.381,4.359-9.744,9.744-9.744
			C103.065,43.844,107.43,48.207,107.43,53.588z"/>
		
			<circle fill="none" stroke="#66A1D2" stroke-linecap="round" stroke-linejoin="round" stroke-miterlimit="10" cx="97.685" cy="53.588" r="3.653"/>
		
			<line fill="none" stroke="#535C66" stroke-linecap="round" stroke-linejoin="round" stroke-miterlimit="10" x1="75.169" y1="55.425" x2="85.456" y2="63.153"/>
		
			<line fill="none" stroke="#535C66" stroke-linecap="round" stroke-linejoin="round" stroke-miterlimit="10" x1="61.952" y1="96.356" x2="90.24" y2="77.571"/>
	</g>
</g>
<g id="Layer_2">
</g>
</svg>
